<?xml version="1.0" standalone="no"?>
<!DOCTYPE svg PUBLIC "-//W3C//DTD SVG 20010904//EN"
 "http://www.w3.org/TR/2001/REC-SVG-20010904/DTD/svg10.dtd">
<svg version="1.0" xmlns="http://www.w3.org/2000/svg"
 width="500.000000pt" height="500.000000pt" viewBox="0 0 500.000000 500.000000"
 preserveAspectRatio="xMidYMid meet">

<g transform="translate(0.000000,500.000000) scale(0.100000,-0.100000)"
fill="#8B0000" stroke="none">
<path d="M2497 4193 c-2 -4 -10 -30 -16 -58 -7 -27 -30 -122 -51 -209 -43
-173 -48 -211 -26 -219 12 -5 151 -10 209 -8 25 1 22 28 -18 182 -19 74 -45
172 -56 219 -20 84 -32 110 -42 93z"/>
<path d="M2153 4013 c4 -38 7 -99 7 -137 l0 -69 52 7 c28 4 60 11 69 17 22 12
15 35 -36 114 -19 31 -35 58 -35 60 0 12 -46 75 -54 75 -5 0 -6 -30 -3 -67z"/>
<path d="M2870 3984 c-105 -143 -105 -141 -40 -174 48 -25 67 -25 74 -2 10 35
37 232 34 248 -2 10 -26 -16 -68 -72z"/>
<path d="M1540 3972 c0 -5 24 -49 53 -98 29 -49 76 -129 105 -179 70 -121 94
-150 114 -139 37 20 147 120 154 139 7 21 -35 64 -91 91 -16 8 -61 34 -100 59
-38 24 -81 50 -95 58 -100 57 -140 77 -140 69z"/>
<path d="M3290 3852 c-225 -138 -230 -141 -230 -161 0 -10 33 -52 73 -95 52
-56 77 -76 89 -71 9 4 44 55 79 113 34 59 69 118 78 132 34 54 101 177 101
185 0 12 -22 0 -190 -103z"/>
<path d="M2245 3648 l4 -68 -69 0 c-38 0 -80 -4 -94 -10 l-25 -9 24 -52 c13
-29 22 -56 19 -61 -3 -4 -36 -8 -75 -8 -79 0 -82 -5 -49 -79 11 -24 18 -46 16
-49 -3 -2 -39 -8 -82 -13 -42 -4 -78 -10 -81 -12 -2 -2 10 -36 27 -75 36 -85
37 -99 8 -107 -56 -17 -158 -69 -158 -81 0 -8 2 -14 4 -14 2 0 50 20 107 45
118 50 115 45 74 150 -14 32 -23 61 -21 62 2 2 36 7 76 10 47 4 74 11 77 20 3
7 -4 36 -15 62 l-20 49 74 7 c83 8 84 9 54 80 -11 26 -20 48 -20 50 0 1 41 6
91 10 l91 7 -6 32 c-4 18 -13 52 -21 77 l-15 44 5 -67z"/>
<path d="M2736 3645 c-9 -35 -16 -68 -16 -73 0 -6 41 -13 90 -17 50 -4 90 -9
90 -10 0 -2 -9 -24 -20 -50 -30 -71 -29 -72 54 -80 l74 -7 -20 -49 c-11 -26
-18 -55 -15 -62 3 -9 30 -16 77 -20 40 -3 74 -8 76 -10 2 -1 -7 -30 -21 -62
-41 -105 -44 -100 74 -150 57 -25 105 -45 107 -45 2 0 4 6 4 14 0 12 -102 64
-157 81 -30 8 -29 22 7 107 17 39 29 73 27 75 -3 2 -39 8 -81 12 -43 5 -79 11
-82 13 -2 3 5 25 16 49 33 74 30 79 -49 79 -39 0 -72 4 -75 8 -3 5 6 32 19 61
l24 52 -25 9 c-14 6 -56 10 -94 10 l-69 0 6 65 c3 36 4 65 1 65 -3 0 -13 -29
-22 -65z"/>
<path d="M2315 3660 c-3 -5 -1 -38 5 -72 11 -56 10 -63 -7 -76 -11 -8 -39 -12
-73 -11 -65 3 -70 -5 -41 -74 l20 -47 -45 0 c-24 0 -60 -6 -78 -14 l-34 -14
19 -39 c10 -21 21 -52 25 -68 l6 -31 -72 4 c-39 3 -76 0 -81 -5 -6 -6 1 -31
21 -67 16 -32 30 -61 30 -65 0 -4 -19 -12 -43 -18 -23 -6 -63 -21 -90 -32 -69
-30 -65 -53 16 -91 34 -17 72 -30 84 -30 35 0 35 -15 4 -76 -16 -32 -27 -62
-25 -66 3 -4 39 -8 80 -8 l76 0 -7 -32 c-4 -18 -16 -50 -26 -71 l-20 -37 26
-10 c15 -6 49 -10 76 -10 54 0 61 -12 34 -60 -8 -14 -14 -35 -15 -47 0 -21 5
-22 73 -25 l72 -3 -1 -30 c0 -16 -4 -51 -8 -77 -10 -55 -2 -60 46 -25 34 24
78 65 78 73 0 7 -58 83 -161 210 -101 126 -259 351 -259 371 0 17 149 235 220
323 63 78 124 154 174 221 29 38 29 39 10 60 -31 35 -102 80 -109 69z m95
-100 c-6 -11 -19 -24 -30 -30 -23 -12 -24 -10 -35 53 l-6 38 41 -21 c35 -18
39 -23 30 -40z m-110 -124 c-16 -25 -35 -48 -40 -51 -9 -6 -31 30 -44 73 -7
21 -5 22 54 22 l61 0 -31 -44z m-80 -96 c0 -6 -17 -33 -37 -60 l-37 -50 -22
53 c-12 28 -20 55 -18 59 8 12 114 9 114 -2z m-117 -170 c-9 -17 -27 -42 -38
-56 l-21 -26 -26 50 -26 51 21 4 c12 2 41 5 65 6 l43 1 -18 -30z m-95 -140
c-9 -14 -24 -20 -52 -20 -46 0 -44 5 10 24 53 20 56 19 42 -4z m0 -81 c7 -12
12 -23 10 -25 -2 -1 -26 8 -53 21 l-50 23 40 1 c31 1 43 -4 53 -20z m92 -135
l19 -34 -59 0 c-35 0 -60 4 -60 10 0 6 9 29 21 51 20 39 21 40 40 24 10 -10
28 -33 39 -51z m95 -134 c16 -22 25 -43 21 -47 -6 -7 -105 -7 -112 0 -2 2 6
27 18 55 24 57 28 57 73 -8z m115 -152 l22 -28 -62 0 c-59 0 -61 1 -54 23 3
12 13 35 22 51 l15 30 18 -25 c10 -13 28 -36 39 -51z m84 -97 l27 -29 -34 -21
c-46 -28 -50 -27 -42 12 8 40 16 67 19 67 1 0 15 -13 30 -29z"/>
<path d="M2645 3648 c-40 -28 -85 -70 -85 -79 0 -8 78 -109 156 -203 68 -82
218 -291 246 -343 l22 -42 -84 -123 c-46 -68 -126 -176 -179 -242 -116 -142
-161 -203 -161 -213 1 -12 106 -93 120 -93 9 0 10 12 4 48 -4 26 -8 61 -8 77
l-1 30 73 3 c82 3 83 4 52 82 l-20 50 54 0 c30 0 66 4 81 10 l26 10 -20 37
c-10 21 -22 53 -26 71 l-7 32 76 0 c41 0 77 4 80 8 2 4 -9 34 -25 66 -31 61
-31 76 4 76 12 0 50 13 85 30 80 38 84 61 15 91 -27 11 -67 26 -90 32 -24 6
-43 14 -43 18 0 4 14 33 30 65 20 36 27 61 21 67 -5 5 -42 8 -81 5 l-72 -4 6
31 c4 16 15 47 25 68 l19 39 -34 14 c-18 8 -54 14 -78 14 l-45 0 20 47 c29 69
24 77 -41 74 -34 -1 -62 3 -73 11 -17 13 -18 20 -7 77 6 35 8 67 3 72 -4 4
-21 -2 -38 -13z m9 -70 c-9 -59 -18 -65 -50 -33 l-27 27 39 24 c21 13 40 24
42 24 1 0 -1 -19 -4 -42z m130 -120 c-13 -43 -35 -79 -44 -73 -5 3 -24 26 -40
51 l-31 44 61 0 c59 0 61 -1 54 -22z m110 -116 c2 -4 -6 -31 -18 -59 l-22 -53
-37 50 c-20 27 -37 54 -37 60 0 11 106 14 114 2z m84 -148 l30 -6 -26 -50 -26
-50 -21 26 c-11 14 -29 39 -38 56 l-18 30 34 0 c19 0 48 -3 65 -6z m77 -169
l30 -13 -40 -1 c-30 -1 -43 4 -53 20 -12 19 -12 20 10 14 13 -4 37 -13 53 -20z
m-20 -80 c-27 -12 -51 -21 -53 -20 -2 2 3 12 10 24 10 16 22 21 53 20 l40 -1
-50 -23z m-55 -105 c11 -21 20 -44 20 -50 0 -6 -25 -10 -60 -10 l-60 0 17 28
c17 27 54 72 60 72 1 0 12 -18 23 -40z m-82 -206 c-4 -3 -69 -7 -95 -5 -31 2
-29 10 14 66 l36 48 24 -53 c13 -29 22 -54 21 -56z m-135 -61 c8 -16 18 -38
21 -50 7 -22 5 -23 -55 -23 l-62 0 19 23 c11 12 28 34 37 50 10 15 19 27 22
27 2 0 11 -12 18 -27z m-110 -175 c3 -21 3 -38 0 -38 -3 0 -21 10 -40 21 l-34
21 27 29 c31 33 38 28 47 -33z"/>
<path d="M2458 3518 c-19 -24 -49 -63 -67 -88 -119 -163 -206 -286 -256 -357
l-57 -82 26 -43 c15 -24 63 -93 109 -155 45 -62 100 -138 122 -169 91 -129
157 -214 165 -214 8 0 74 85 165 214 22 31 77 107 122 169 46 62 94 131 109
155 l27 43 -59 83 c-221 313 -344 478 -360 483 -7 2 -27 -15 -46 -39z m89 -50
c23 -35 70 -102 105 -150 34 -48 79 -110 98 -138 19 -27 59 -82 88 -122 51
-70 52 -72 34 -92 -10 -12 -36 -47 -58 -79 -21 -31 -55 -79 -74 -106 -80 -112
-197 -278 -213 -304 -23 -35 -35 -31 -67 21 -14 22 -61 91 -105 152 -44 61
-108 150 -142 198 -34 48 -71 99 -82 113 l-20 27 52 71 c28 39 68 94 87 121
19 28 64 90 98 138 35 48 82 115 105 150 23 34 44 62 47 62 3 0 24 -28 47 -62z"/>
<path d="M2420 3370 c0 -8 4 -30 9 -48 l10 -32 -45 0 c-53 0 -62 -15 -39 -59
l16 -31 -41 0 c-36 0 -40 -3 -40 -24 0 -14 4 -36 9 -49 9 -24 8 -25 -40 -29
-27 -3 -52 -8 -56 -11 -3 -4 6 -24 21 -45 32 -47 32 -58 1 -105 -14 -20 -23
-41 -20 -46 3 -5 27 -12 55 -16 44 -6 49 -9 40 -25 -6 -10 -10 -30 -10 -44 0
-24 4 -26 40 -26 44 0 46 -3 25 -40 -23 -41 -19 -49 33 -52 36 -2 46 -7 44
-18 -2 -8 -6 -29 -9 -46 l-5 -30 82 0 82 0 -5 30 c-3 17 -7 38 -9 46 -2 11 8
16 45 18 51 3 55 11 32 52 -21 37 -19 40 25 40 36 0 40 2 40 26 0 14 -4 34
-10 44 -9 16 -4 19 40 25 28 4 52 11 55 16 3 5 -6 26 -20 46 -31 47 -31 58 1
105 15 21 24 41 21 45 -4 3 -29 8 -56 11 -48 4 -49 5 -40 29 5 13 9 35 9 49 0
21 -4 24 -40 24 l-41 0 16 31 c23 44 14 59 -39 59 l-45 0 10 32 c17 63 17 63
-71 63 -65 0 -80 -3 -80 -15z m110 -102 c28 -57 74 -129 133 -212 46 -64 48
-68 33 -89 -53 -73 -149 -222 -168 -261 -12 -25 -25 -46 -28 -46 -3 0 -16 21
-28 46 -29 58 -144 235 -166 253 -23 19 -21 25 32 99 58 81 104 153 132 210
12 23 25 42 30 42 5 0 18 -19 30 -42z m205 -328 c3 -5 1 -10 -4 -10 -6 0 -11
5 -11 10 0 6 2 10 4 10 3 0 8 -4 11 -10z"/>
<path d="M2421 3076 c-33 -41 -61 -80 -61 -88 1 -15 43 -74 95 -129 24 -26 40
-36 52 -32 29 11 132 137 133 161 0 22 -121 162 -140 162 -10 0 -45 -33 -79
-74z"/>
<path d="M1505 3434 c100 -91 152 -134 163 -134 12 0 62 86 62 106 0 8 -23 20
-52 29 -61 17 -194 45 -211 45 -7 -1 11 -21 38 -46z"/>
<path d="M3445 3413 c-55 -8 -104 -18 -108 -22 -13 -13 22 -121 39 -121 19 0
223 139 224 153 0 9 -35 7 -155 -10z"/>
<path d="M1385 3080 c-104 -27 -199 -49 -211 -49 -11 -1 -29 -7 -39 -15 -22
-16 -30 -13 210 -74 232 -60 248 -63 259 -52 12 12 28 194 20 223 -7 24 -24
22 -239 -33z"/>
<path d="M3392 3083 c-13 -24 -21 -208 -11 -225 7 -10 34 -6 141 21 251 63
358 95 351 102 -8 8 -437 119 -460 119 -7 0 -16 -8 -21 -17z"/>
<path d="M1712 2948 c3 -7 42 -29 88 -49 47 -21 86 -43 88 -49 4 -11 -35 -116
-50 -137 -18 -22 2 -32 82 -39 44 -3 80 -8 80 -9 0 -2 -9 -24 -20 -50 -30 -70
-29 -72 54 -80 l74 -7 -10 -31 c-6 -18 -18 -42 -26 -55 -8 -12 -11 -26 -8 -30
4 -4 48 -9 97 -11 l89 -3 -5 -67 -5 -66 20 60 c32 96 32 95 -57 95 -103 0
-109 4 -82 64 30 68 23 76 -61 76 -38 0 -70 2 -70 4 0 2 9 23 20 47 35 79 36
78 -93 94 -42 6 -46 8 -37 25 6 11 19 47 29 80 l19 60 -21 15 c-12 8 -27 15
-35 15 -7 0 -39 14 -72 30 -63 32 -94 38 -88 18z"/>
<path d="M3200 2930 c-30 -16 -62 -29 -70 -30 -9 0 -25 -7 -37 -15 l-22 -16
28 -79 28 -79 -46 -6 c-127 -16 -126 -15 -91 -94 11 -24 20 -45 20 -47 0 -2
-32 -4 -70 -4 -84 0 -91 -8 -61 -76 27 -60 21 -64 -81 -64 -88 0 -86 3 -63
-86 21 -80 29 -81 21 -3 l-6 67 89 3 c49 2 93 7 97 11 3 4 0 18 -8 30 -8 13
-20 37 -26 55 l-10 31 74 7 c83 8 84 10 54 80 -11 26 -20 48 -20 50 0 1 36 6
80 9 80 7 100 17 82 39 -15 21 -54 126 -50 137 2 6 41 28 88 49 80 36 112 62
73 61 -10 -1 -43 -14 -73 -30z"/>
<path d="M1565 2669 c-33 -22 -82 -54 -109 -70 -26 -17 -46 -33 -43 -35 10
-10 246 8 262 20 13 10 13 17 -1 69 -12 40 -22 57 -33 56 -9 0 -43 -18 -76
-40z"/>
<path d="M3354 2618 c-25 -49 -25 -52 -8 -65 10 -7 29 -13 43 -13 14 0 61 -7
104 -15 43 -8 88 -15 100 -15 20 1 20 3 -8 26 -78 66 -174 134 -189 134 -9 0
-27 -22 -42 -52z"/>
<path d="M1746 2427 c-15 -19 -26 -36 -26 -39 0 -3 -25 -45 -55 -94 -30 -49
-58 -96 -62 -104 -4 -8 -24 -42 -45 -74 -35 -54 -47 -86 -32 -86 9 0 41 18
214 121 215 128 206 120 190 150 -20 37 -132 159 -147 159 -6 0 -23 -15 -37
-33z"/>
<path d="M3175 2411 c-40 -26 -145 -125 -145 -138 0 -16 27 -35 160 -112 69
-40 136 -81 150 -91 40 -27 111 -61 121 -58 10 3 -232 410 -247 415 -5 2 -22
-6 -39 -16z"/>
<path d="M2364 2255 c-8 -19 108 -476 121 -478 15 -3 128 443 118 469 -7 18
-38 24 -141 24 -73 0 -94 -3 -98 -15z"/>
<path d="M2086 2149 c-6 -17 -42 -183 -50 -226 -3 -18 -2 -33 3 -33 11 0 160
177 169 200 5 12 -59 57 -90 65 -19 5 -29 3 -32 -6z"/>
<path d="M2848 2122 c-27 -8 -48 -21 -48 -28 0 -12 120 -196 146 -224 12 -12
14 -11 14 10 -1 45 -27 237 -34 249 -9 14 -19 13 -78 -7z"/>
<path d="M660 1370 l0 -260 45 0 45 0 0 170 c0 94 3 170 8 170 4 0 40 -72 81
-160 l73 -160 43 0 c42 0 43 1 65 53 28 65 86 191 108 235 17 32 17 29 20
-138 l2 -170 45 0 45 0 0 260 0 260 -56 0 -55 0 -25 -57 c-38 -88 -62 -139
-109 -238 l-43 -90 -54 115 c-29 63 -69 150 -88 192 l-35 77 -57 1 -58 0 0
-260z"/>
<path d="M2538 1624 c-5 -4 -8 -121 -8 -261 l0 -253 45 0 45 0 0 130 0 130 33
0 c31 0 37 -7 117 -130 l85 -129 48 -1 c26 0 47 3 47 6 0 3 -38 62 -85 131
l-84 126 52 18 c124 42 133 166 15 214 -46 19 -296 34 -310 19z m267 -85 c20
-10 31 -23 33 -41 5 -40 -37 -58 -138 -58 l-80 0 0 53 c0 30 3 57 8 61 11 12
144 1 177 -15z"/>
<path d="M3490 1371 l0 -261 45 0 45 0 0 116 c0 149 17 183 92 184 83 0 98
-27 98 -185 l0 -115 40 0 40 0 0 138 c0 152 -6 174 -59 209 -43 29 -121 31
-174 4 l-36 -18 -3 91 -3 91 -42 3 -43 3 0 -260z"/>
<path d="M1426 1466 c-22 -8 -48 -23 -58 -33 -18 -19 -18 -20 1 -37 17 -16 22
-16 48 -3 15 8 44 16 63 17 75 6 101 0 125 -26 41 -44 31 -57 -21 -29 -85 45
-205 25 -265 -42 -27 -31 -30 -42 -26 -76 7 -51 46 -92 110 -113 63 -21 149
-14 188 15 36 27 39 26 39 -4 0 -23 4 -25 46 -25 l46 0 -4 138 c-3 153 -12
178 -71 208 -44 23 -170 29 -221 10z m164 -174 c42 -21 50 -52 19 -80 -44 -42
-163 -39 -206 4 -20 20 -22 27 -13 45 25 47 135 64 200 31z"/>
<path d="M1790 1295 l0 -185 40 0 40 0 0 95 c0 59 5 108 14 129 18 44 61 76
101 76 30 0 33 3 37 35 4 33 3 35 -27 35 -17 0 -48 -9 -70 -20 -22 -11 -43
-20 -47 -20 -4 0 -8 9 -8 20 0 17 -7 20 -40 20 l-40 0 0 -185z"/>
<path d="M2165 1464 c-22 -8 -47 -21 -55 -29 -13 -13 -12 -18 6 -35 19 -20 21
-20 53 -4 48 24 135 22 169 -3 15 -11 28 -29 30 -40 3 -20 2 -20 -45 4 -40 20
-58 24 -108 20 -67 -5 -135 -35 -159 -69 -18 -25 -21 -90 -6 -118 19 -36 96
-72 163 -77 53 -4 69 -1 110 21 l47 25 0 -24 c0 -23 4 -25 45 -25 l45 0 0 140
0 139 -30 34 c-16 18 -47 39 -68 45 -53 16 -148 14 -197 -4z m186 -180 c73
-66 -66 -134 -174 -86 -37 17 -47 26 -47 45 0 46 53 69 143 63 37 -3 66 -11
78 -22z"/>
<path d="M3129 1468 c-21 -5 -46 -20 -58 -32 -21 -22 -21 -23 -2 -40 17 -16
22 -16 48 -3 28 15 72 21 129 18 34 -1 84 -41 84 -66 0 -14 -6 -13 -37 7 -51
31 -159 33 -218 3 -44 -22 -85 -75 -85 -110 0 -34 41 -86 85 -109 58 -30 168
-30 212 2 39 28 43 28 43 -3 0 -22 4 -25 40 -25 l40 0 0 146 0 146 -28 28
c-16 15 -46 33 -68 39 -47 13 -135 13 -185 -1z m161 -176 c47 -23 53 -61 13
-88 -39 -26 -148 -26 -187 -1 -22 15 -27 25 -24 49 2 26 10 34 38 44 51 18
120 17 160 -4z"/>
<path d="M4050 1468 c-19 -5 -46 -18 -60 -28 l-25 -19 21 -21 c21 -21 23 -21
54 -5 46 24 135 23 168 -2 15 -11 28 -30 30 -42 l4 -23 -32 24 c-45 33 -165
33 -227 0 -135 -71 -74 -224 96 -239 55 -5 78 1 164 45 4 2 7 -8 7 -22 0 -24
3 -26 46 -26 l46 0 -4 140 -3 139 -33 34 c-18 19 -50 39 -71 46 -45 13 -131
13 -181 -1z m154 -172 c92 -38 13 -128 -99 -113 -84 12 -127 54 -95 92 27 33
137 45 194 21z"/>
<path d="M2205 995 c-42 -22 -55 -43 -55 -88 0 -49 13 -73 50 -92 35 -18 70
-19 105 -3 20 9 25 18 25 50 0 27 -4 38 -15 38 -10 0 -15 -10 -15 -30 0 -23
-5 -31 -26 -36 -56 -14 -107 40 -88 94 13 38 56 57 96 43 35 -13 57 -1 34 18
-24 20 -79 23 -111 6z"/>
<path d="M1470 991 c0 -5 -13 -38 -30 -73 -48 -105 -52 -118 -35 -118 9 0 21
11 27 25 10 22 17 25 65 25 47 0 55 -3 65 -25 11 -24 38 -35 38 -16 0 5 -13
38 -30 73 -16 35 -34 76 -39 91 -8 19 -18 27 -36 27 -14 0 -25 -4 -25 -9z m52
-71 l17 -40 -40 0 c-21 0 -39 2 -39 4 0 12 32 76 38 76 4 0 15 -18 24 -40z"/>
<path d="M1650 900 c0 -82 3 -100 15 -100 10 0 15 10 15 30 0 28 3 30 34 30
28 0 38 -6 53 -30 9 -17 26 -30 36 -30 18 0 18 1 3 23 -28 37 -28 45 -7 66 27
27 27 62 -2 89 -19 18 -35 22 -85 22 l-62 0 0 -100z m130 50 c15 -29 -20 -62
-63 -58 -29 3 -32 6 -35 41 l-3 37 45 0 c35 0 48 -5 56 -20z"/>
<path d="M1850 985 c0 -10 11 -15 35 -15 l35 0 0 -85 c0 -69 3 -85 15 -85 12
0 15 16 15 85 l0 85 35 0 c24 0 35 5 35 15 0 12 -16 15 -85 15 -69 0 -85 -3
-85 -15z"/>
<path d="M2460 996 c0 -2 -20 -47 -45 -100 -39 -84 -42 -96 -26 -96 12 0 21
10 25 25 6 23 11 25 65 25 54 0 59 -2 65 -25 4 -16 13 -25 26 -25 25 0 25 1 1
47 -11 21 -31 64 -45 96 -19 43 -30 57 -45 57 -12 0 -21 -2 -21 -4z m41 -68
c7 -18 14 -36 17 -40 2 -5 -14 -8 -36 -8 l-40 0 15 40 c9 22 19 40 24 40 4 0
13 -15 20 -32z"/>
<path d="M2630 900 l0 -100 75 0 c60 0 75 3 75 15 0 12 -13 15 -55 15 l-55 0
0 85 c0 78 -2 85 -20 85 -19 0 -20 -7 -20 -100z"/>
<path d="M2820 900 l0 -100 70 0 c56 0 70 3 70 15 0 11 -12 15 -50 15 l-50 0
0 85 c0 78 -2 85 -20 85 -19 0 -20 -7 -20 -100z"/>
<path d="M3010 900 l0 -100 75 0 c59 0 75 3 75 15 0 10 -15 15 -57 17 -55 3
-58 5 -61 30 -3 26 -1 27 49 30 75 4 79 28 5 28 -53 0 -56 1 -56 25 0 22 4 24
57 27 34 2 58 8 61 16 3 9 -16 12 -72 12 l-76 0 0 -100z"/>
<path d="M3220 900 c0 -93 1 -100 20 -100 16 0 20 7 20 30 0 27 3 30 30 30 24
0 35 -7 48 -30 9 -16 25 -30 36 -30 17 0 17 1 2 23 -28 37 -28 45 -7 66 27 27
27 65 1 91 -16 16 -33 20 -85 20 l-65 0 0 -100z m128 36 c4 -34 -10 -46 -55
-46 -32 0 -33 1 -33 41 l0 40 43 -3 c38 -3 42 -6 45 -32z"/>
<path d="M3433 978 c42 -59 67 -114 67 -144 0 -24 5 -34 15 -34 11 0 15 11 15
36 0 24 12 56 35 94 39 64 41 70 23 70 -15 -1 -42 -36 -52 -67 -11 -33 -21
-29 -53 22 -17 27 -35 45 -47 45 -17 0 -17 -2 -3 -22z"/>
<path d="M980 910 l-135 -5 160 -7 c240 -12 275 -11 275 7 0 16 -22 17 -300 5z"/>
<path d="M3720 907 c0 -15 13 -17 98 -16 53 1 151 5 217 9 l120 6 -90 2 c-49
1 -147 5 -217 9 -115 5 -128 4 -128 -10z"/>
</g>
</svg>
