<?xml version="1.0" standalone="no"?>
<!DOCTYPE svg PUBLIC "-//W3C//DTD SVG 20010904//EN"
 "http://www.w3.org/TR/2001/REC-SVG-20010904/DTD/svg10.dtd">
<svg version="1.0" xmlns="http://www.w3.org/2000/svg"
 width="5625.000000pt" height="4500.000000pt" viewBox="0 0 5625.000000 4500.000000"
 preserveAspectRatio="xMidYMid meet">

<g transform="translate(0.000000,4500.000000) scale(0.100000,-0.100000)"
fill="#7d110f" stroke="none">
<path d="M28117 35522 c-48 -53 -64 -116 -679 -2642 -229 -944 -239 -992 -205
-1056 24 -46 92 -101 154 -124 108 -40 207 -49 889 -77 755 -30 754 -30 825
34 63 57 82 149 58 293 -11 68 -799 3135 -848 3300 -73 243 -138 335 -194 272z"/>
<path d="M25433 34643 c-33 -51 -32 -150 22 -1423 13 -311 29 -580 34 -598 17
-56 51 -102 95 -125 74 -39 145 -30 540 67 192 48 364 94 383 103 74 35 81
122 21 260 -50 115 -955 1648 -1004 1700 -47 50 -67 53 -91 16z"/>
<path d="M31474 34492 c-51 -37 -62 -51 -395 -502 -597 -807 -764 -1036 -783
-1074 -48 -97 -23 -199 66 -266 71 -53 721 -352 769 -354 72 -2 121 58 159
194 25 92 280 1849 280 1931 0 103 -26 122 -96 71z"/>
<path d="M20673 33819 c-20 -20 -15 -79 11 -134 23 -50 323 -566 701 -1205
497 -841 1091 -1839 1117 -1878 16 -23 48 -55 70 -70 35 -23 52 -27 108 -26
55 0 80 6 141 35 41 20 106 60 145 90 133 101 1018 907 1053 959 27 40 36 64
39 109 6 90 -34 156 -151 244 -98 74 -2864 1748 -3007 1820 -121 61 -203 81
-227 56z"/>
<path d="M35625 33672 c-27 -9 -313 -175 -635 -368 -752 -451 -2448 -1481
-2479 -1506 -14 -10 -36 -35 -50 -56 -38 -55 -37 -153 4 -242 48 -104 120
-191 505 -610 452 -493 523 -565 585 -601 111 -64 225 -16 339 145 54 75 1702
2857 1763 2976 43 84 83 195 83 230 0 23 -26 50 -48 50 -9 -1 -39 -8 -67 -18z"/>
<path d="M26084 31685 c-21 -21 -24 -32 -20 -68 3 -23 8 -76 11 -117 14 -179
64 -486 106 -652 10 -42 19 -78 19 -81 0 -2 -147 -7 -327 -10 -384 -6 -648
-29 -988 -83 -116 -19 -130 -25 -150 -64 -28 -54 -19 -91 55 -232 113 -216
302 -659 288 -673 -3 -3 -245 -15 -539 -26 -294 -12 -551 -25 -571 -30 -49
-13 -81 -58 -80 -113 0 -25 15 -73 37 -121 88 -191 199 -461 286 -697 l28 -76
-47 -6 c-26 -3 -297 -29 -602 -56 -481 -43 -561 -53 -597 -71 -42 -21 -73 -66
-73 -106 0 -11 54 -129 119 -262 133 -271 232 -512 314 -766 81 -253 84 -224
-25 -264 -293 -109 -797 -327 -1135 -491 -213 -104 -233 -120 -233 -186 0 -64
69 -134 133 -134 13 0 105 39 203 86 406 195 813 372 1164 505 186 70 205 80
226 120 20 40 18 72 -16 195 -83 299 -222 672 -354 948 -36 77 -65 141 -63
142 2 2 253 28 558 59 690 68 634 60 676 98 28 26 34 39 35 72 0 57 -156 484
-291 794 -23 52 -38 97 -35 100 3 3 247 15 542 28 466 19 541 24 570 39 37 20
62 59 62 98 0 64 -148 448 -271 705 -44 90 -78 165 -76 167 5 6 247 34 417 50
138 12 593 24 943 24 10 0 32 13 48 29 40 41 38 73 -17 254 -60 198 -133 491
-174 697 -18 91 -39 173 -48 183 -23 26 -78 22 -108 -8z"/>
<path d="M30058 31693 c-9 -10 -30 -92 -48 -183 -41 -206 -114 -499 -174 -697
-55 -181 -57 -213 -17 -254 16 -16 38 -29 48 -29 350 0 805 -12 943 -24 170
-16 412 -44 417 -50 2 -2 -32 -77 -76 -167 -123 -257 -271 -641 -271 -705 0
-39 25 -78 62 -98 29 -15 104 -20 570 -39 295 -13 539 -25 542 -28 3 -3 -12
-48 -35 -100 -135 -310 -291 -737 -291 -794 1 -33 7 -46 35 -72 42 -38 -14
-30 676 -98 305 -31 556 -57 558 -59 2 -1 -27 -65 -63 -142 -132 -276 -271
-649 -354 -948 -34 -123 -36 -155 -16 -195 21 -40 40 -50 226 -120 351 -133
758 -310 1164 -505 98 -47 190 -86 203 -86 64 0 133 70 133 134 0 66 -20 82
-233 186 -338 164 -842 382 -1135 491 -109 40 -106 11 -25 264 82 254 181 495
314 766 65 133 119 251 119 262 0 40 -31 85 -73 106 -36 18 -116 28 -597 71
-305 27 -576 53 -602 56 l-47 6 28 76 c87 236 198 506 286 697 22 48 37 96 37
121 1 55 -31 100 -80 113 -20 5 -277 18 -571 30 -294 11 -536 23 -539 26 -14
14 175 457 288 673 74 141 83 178 55 232 -20 39 -34 45 -150 64 -340 54 -604
77 -987 83 -181 3 -328 8 -328 10 0 3 9 39 19 81 42 166 92 473 106 652 3 41
8 94 11 117 4 36 1 47 -20 68 -30 30 -85 34 -108 8z"/>
<path d="M26702 31415 c-23 -10 -39 -28 -53 -60 l-20 -46 46 -292 c26 -161 59
-344 73 -407 33 -144 37 -296 9 -348 -24 -44 -79 -78 -157 -97 -99 -24 -367
-29 -644 -12 -271 18 -295 15 -333 -42 -13 -19 -23 -46 -23 -61 0 -50 157
-488 283 -793 l46 -109 -32 6 c-163 30 -461 36 -621 11 -178 -27 -416 -93
-482 -134 -31 -19 -64 -74 -64 -107 0 -10 40 -97 89 -193 49 -97 112 -232 140
-300 49 -119 151 -420 166 -490 l7 -33 -38 6 c-284 43 -906 57 -1102 26 -90
-15 -143 -85 -121 -162 9 -34 86 -184 341 -666 82 -156 148 -285 146 -286 -1
-2 -39 -9 -83 -15 -290 -45 -673 -183 -1131 -405 -181 -89 -212 -107 -221
-132 -18 -46 -15 -244 4 -273 10 -15 89 -60 227 -126 444 -217 785 -340 1090
-395 60 -11 111 -22 113 -24 2 -2 -27 -61 -65 -132 -237 -443 -416 -792 -422
-821 -12 -50 6 -99 45 -129 30 -22 50 -27 147 -36 160 -14 698 -4 896 17 90 9
165 15 168 13 7 -7 -62 -236 -108 -363 -58 -157 -136 -334 -218 -490 -38 -74
-70 -144 -70 -156 0 -26 22 -69 47 -92 53 -47 343 -129 542 -152 185 -22 328
-19 550 11 64 8 66 27 -19 -181 -123 -300 -250 -660 -250 -706 0 -43 20 -77
58 -101 34 -21 36 -21 286 -9 138 6 274 14 301 16 76 7 313 -13 375 -31 155
-45 189 -148 135 -402 -14 -64 -49 -254 -76 -422 -56 -339 -56 -356 2 -404 48
-41 86 -35 177 26 243 163 483 347 666 513 59 54 122 106 139 114 39 20 52 41
44 73 -4 14 -70 115 -148 224 -235 329 -431 576 -963 1214 -465 558 -726 897
-1184 1542 -292 412 -659 952 -916 1351 l-127 198 103 162 c282 442 803 1205
1157 1692 371 512 522 704 1046 1335 394 474 550 668 708 878 164 218 327 454
327 474 0 32 -17 55 -52 68 -18 7 -62 41 -98 75 -101 96 -231 206 -359 303
-187 143 -407 292 -438 297 -15 3 -43 -2 -61 -10z m671 -663 l128 -83 -223
-228 -223 -229 -8 42 c-4 22 -16 86 -27 141 -23 119 -110 631 -110 649 0 7 75
-37 168 -98 92 -61 225 -149 295 -194z m-575 -842 c-7 -10 -83 -105 -169 -212
-85 -106 -215 -272 -289 -368 -73 -96 -135 -177 -137 -179 -2 -2 -5 -2 -8 1
-17 17 -269 651 -300 756 l-7 23 461 -2 c438 -2 461 -3 449 -19z m-1080 -981
c87 -9 219 -32 264 -45 13 -4 -36 -76 -220 -323 -130 -175 -273 -367 -316
-427 -66 -90 -81 -105 -87 -88 -4 10 -30 91 -59 179 -57 178 -138 380 -211
527 -27 54 -49 100 -49 102 0 8 86 32 177 50 166 34 340 43 501 25z m-548
-1175 c0 -3 -56 -85 -124 -182 -68 -98 -194 -280 -279 -405 -151 -221 -156
-227 -170 -205 -50 81 -388 730 -383 736 20 20 956 75 956 56z m-851 -1260
c-56 -88 -109 -167 -118 -178 -15 -17 -28 -18 -181 -13 -91 3 -235 1 -320 -4
-84 -4 -155 -7 -157 -5 -2 1 81 35 185 76 260 101 501 200 602 247 47 22 86
39 88 38 2 -2 -43 -74 -99 -161z m-122 -518 c12 -12 222 -340 219 -343 -1 -2
-54 20 -117 49 -63 28 -256 108 -430 177 l-317 126 320 -2 c176 0 322 -4 325
-7z m576 -866 c84 -124 205 -299 268 -390 64 -91 119 -171 124 -179 7 -12 -25
-13 -220 -8 -213 7 -575 30 -691 45 l-51 7 201 377 c110 208 204 377 208 375
4 -1 76 -103 161 -227z m733 -1040 c70 -96 208 -282 306 -412 152 -203 189
-258 176 -258 -2 0 -48 -9 -103 -20 -130 -27 -414 -37 -540 -21 -134 18 -307
61 -301 74 2 7 33 75 69 152 86 187 145 339 203 522 27 84 52 149 55 145 4 -4
64 -86 135 -182z m854 -1141 c69 -90 198 -255 287 -366 l163 -203 -460 0
c-253 0 -460 1 -460 3 0 4 75 208 118 322 17 44 60 152 97 240 37 88 71 173
77 189 l11 29 21 -25 c12 -13 77 -98 146 -189z m1008 -1179 c115 -115 131
-136 117 -145 -10 -5 -142 -92 -294 -192 -152 -100 -277 -178 -279 -174 -3 8
79 497 120 717 l23 121 89 -96 c49 -53 150 -157 224 -231z"/>
<path d="M29456 31415 c-42 -22 -272 -184 -407 -287 -128 -97 -258 -207 -359
-303 -36 -34 -80 -68 -98 -75 -35 -13 -52 -36 -52 -68 0 -20 163 -256 327
-474 158 -210 314 -404 708 -878 524 -631 675 -823 1046 -1335 354 -487 875
-1250 1157 -1692 l103 -162 -127 -198 c-542 -841 -1265 -1862 -1717 -2426 -91
-114 -300 -368 -464 -564 -337 -405 -572 -696 -719 -893 -155 -207 -304 -422
-311 -449 -8 -31 5 -52 44 -72 17 -8 80 -60 139 -114 183 -166 423 -350 666
-513 91 -61 129 -67 177 -26 58 48 58 65 2 404 -27 168 -62 358 -76 422 -54
254 -20 357 135 402 62 18 299 38 375 31 27 -2 163 -10 301 -16 250 -12 252
-12 286 9 38 24 58 58 58 101 0 46 -127 406 -250 706 -85 208 -83 189 -19 181
222 -30 365 -33 550 -11 199 23 489 105 542 152 25 23 47 66 47 92 0 12 -32
82 -70 156 -82 156 -160 333 -218 490 -46 127 -115 356 -108 363 3 2 78 -4
168 -13 198 -21 736 -31 896 -17 97 9 117 14 147 36 39 30 57 79 45 129 -6 29
-185 378 -422 821 -38 71 -67 130 -65 132 2 2 53 13 113 24 305 55 646 178
1090 395 138 66 217 111 227 126 19 29 22 227 4 273 -9 25 -40 43 -221 132
-458 222 -841 360 -1131 405 -44 6 -82 13 -83 15 -2 1 64 130 146 286 255 482
332 632 341 665 22 78 -31 148 -121 163 -196 31 -818 17 -1102 -26 l-38 -6 7
33 c15 70 117 371 166 490 28 68 91 203 140 300 49 96 89 183 89 193 0 33 -33
88 -64 107 -66 41 -304 107 -482 134 -160 25 -458 19 -621 -11 l-32 -6 46 109
c126 305 283 743 283 793 0 15 -10 42 -23 61 -38 57 -62 60 -333 42 -277 -17
-545 -12 -644 12 -78 19 -133 53 -157 97 -28 52 -24 204 9 348 14 63 47 246
73 407 l46 292 -20 46 c-15 34 -29 49 -55 60 -44 19 -54 19 -90 0z m-160 -647
c-26 -150 -55 -318 -66 -373 -11 -55 -23 -119 -27 -141 l-8 -42 -223 229 -223
228 136 88 c75 48 207 135 293 193 86 58 158 102 160 98 2 -4 -17 -130 -42
-280z m1059 -860 c-31 -105 -283 -739 -300 -756 -3 -3 -6 -3 -8 -1 -2 2 -64
83 -137 179 -74 96 -204 262 -289 368 -86 107 -162 202 -169 212 -12 16 11 17
449 19 l461 2 -7 -23z m595 -988 c88 -15 232 -49 248 -59 11 -6 3 -30 -36
-107 -74 -149 -155 -350 -212 -529 -29 -88 -55 -169 -59 -179 -6 -17 -21 -2
-87 88 -43 60 -186 252 -316 427 -185 248 -233 319 -220 323 36 11 181 37 252
46 89 11 338 5 430 -10z m625 -1181 c239 -14 443 -32 456 -40 8 -5 -49 -121
-176 -360 -103 -195 -194 -364 -202 -377 -14 -22 -19 -16 -170 205 -85 125
-211 307 -279 405 -68 97 -124 179 -124 183 0 7 233 0 495 -16z m741 -1287
c137 -55 282 -112 322 -127 39 -16 71 -30 69 -31 -2 -2 -73 1 -157 5 -85 5
-229 7 -320 4 -153 -5 -166 -4 -181 13 -17 20 -219 332 -219 338 0 2 53 -20
118 -50 66 -29 231 -98 368 -152z m65 -593 c-174 -69 -367 -149 -430 -177 -63
-29 -116 -51 -117 -49 -4 4 213 339 225 346 5 3 151 6 324 6 l315 0 -317 -126z
m-535 -897 l201 -377 -51 -7 c-116 -15 -478 -38 -691 -45 -195 -5 -227 -4
-220 8 5 8 74 109 155 224 80 116 202 292 270 393 68 100 127 182 130 182 3 0
96 -170 206 -378z m-789 -1197 c28 -66 74 -169 102 -229 28 -60 51 -110 51
-112 0 -6 -223 -54 -305 -65 -126 -16 -410 -6 -540 21 -55 11 -101 20 -102 20
-15 0 27 60 205 298 114 152 254 341 312 419 l104 143 61 -188 c34 -103 85
-241 112 -307z m-905 -855 c33 -80 73 -181 90 -225 42 -111 118 -318 118 -322
0 -2 -207 -3 -461 -3 l-460 0 104 128 c113 138 307 386 432 551 l79 105 19
-45 c10 -24 46 -109 79 -189z m-862 -1364 c28 -164 49 -303 48 -307 -2 -4
-127 74 -279 174 -152 100 -285 187 -294 192 -16 10 -6 23 81 107 54 53 155
157 224 231 l125 135 22 -116 c12 -65 45 -252 73 -416z"/>
<path d="M28028 30568 c-137 -149 -611 -784 -1153 -1548 -197 -278 -578 -806
-845 -1175 -553 -761 -768 -1062 -995 -1389 l-159 -228 -2 -70 c-2 -39 2 -82
7 -96 20 -53 416 -612 1109 -1567 268 -368 642 -888 831 -1155 625 -879 1073
-1481 1207 -1622 34 -36 40 -38 97 -38 57 0 63 2 97 38 134 141 582 743 1207
1622 189 267 563 787 831 1155 693 955 1089 1514 1109 1567 5 14 9 57 7 96
l-2 70 -159 228 c-231 333 -449 637 -995 1389 -267 369 -625 866 -795 1105
-513 723 -774 1079 -1049 1428 -186 236 -181 232 -251 232 -55 0 -60 -2 -97
-42z m626 -987 c149 -211 296 -416 731 -1016 103 -143 400 -559 658 -925 506
-715 634 -894 904 -1262 l174 -237 -74 -98 c-186 -247 -523 -717 -1092 -1523
-181 -256 -463 -652 -629 -880 -609 -843 -882 -1232 -1101 -1569 -54 -84 -101
-148 -105 -144 -4 4 -69 103 -145 218 -231 353 -432 638 -1052 1495 -165 228
-447 624 -628 880 -569 806 -906 1276 -1092 1523 l-74 98 174 237 c270 368
398 547 904 1262 258 366 555 782 658 925 667 920 819 1135 1077 1526 l183
275 186 -280 c103 -155 257 -382 343 -505z"/>
<path d="M27509 29232 c-43 -38 -49 -80 -27 -182 44 -200 92 -381 124 -464 19
-48 34 -89 34 -90 0 0 -96 -1 -213 -2 -234 -1 -496 -25 -535 -51 -33 -20 -55
-78 -47 -120 3 -19 67 -142 141 -274 74 -131 134 -242 134 -246 0 -3 -134 -4
-299 0 -266 5 -301 4 -322 -11 -33 -22 -46 -42 -53 -75 -10 -47 104 -489 169
-658 6 -15 -13 -17 -182 -22 -193 -5 -297 -19 -473 -63 -108 -27 -137 -45
-164 -98 -28 -58 -17 -91 62 -173 104 -107 163 -193 247 -354 68 -134 74 -150
64 -173 -9 -19 -9 -35 -2 -60 10 -32 6 -44 -52 -159 -82 -164 -142 -254 -237
-353 -42 -44 -82 -93 -88 -108 -26 -70 21 -144 111 -170 166 -50 419 -86 605
-86 107 0 116 -1 109 -17 -51 -125 -166 -555 -169 -628 -1 -52 24 -92 71 -112
30 -12 57 -13 173 -4 75 6 203 11 284 11 137 0 148 -1 141 -17 -3 -10 -63
-119 -132 -241 -69 -123 -130 -239 -136 -257 -12 -41 11 -113 43 -133 46 -29
493 -65 669 -54 80 4 84 4 76 -14 -58 -144 -167 -547 -167 -624 -1 -50 27 -99
66 -115 29 -12 55 -11 217 11 101 13 220 32 264 41 100 20 120 20 220 0 44 -9
163 -28 264 -41 162 -22 188 -23 217 -11 39 16 67 65 66 115 0 77 -109 480
-167 624 -8 18 -4 18 76 14 176 -11 623 25 669 54 32 20 55 92 43 133 -6 18
-67 134 -136 257 -69 122 -129 231 -132 241 -7 16 4 17 141 17 81 0 209 -5
284 -11 116 -9 143 -8 173 4 47 20 72 60 71 112 -3 73 -118 503 -169 628 -7
16 2 17 109 17 186 0 439 36 605 86 90 26 137 100 111 170 -6 15 -46 64 -88
108 -95 99 -156 190 -237 353 -57 114 -62 128 -52 158 6 22 6 42 -1 61 -9 26
-2 45 65 175 81 159 141 245 245 352 79 82 90 115 62 173 -27 53 -56 71 -164
98 -176 44 -280 58 -473 63 -169 5 -188 7 -182 22 64 167 179 611 169 657 -7
34 -20 54 -53 76 -21 15 -56 16 -322 11 -165 -4 -299 -3 -299 0 0 4 60 115
134 246 74 132 138 255 141 274 8 42 -14 100 -47 120 -39 26 -301 50 -535 51
-117 1 -213 2 -213 2 0 1 15 42 34 90 32 83 80 264 124 464 12 55 16 97 11
120 -10 45 -59 90 -100 90 -44 0 -446 -58 -504 -73 -40 -10 -60 -10 -100 0
-59 15 -460 73 -504 73 -19 0 -42 -10 -62 -28z m351 -410 c-1 -12 -38 -57 -43
-52 -3 3 -8 22 -12 42 l-7 38 31 -11 c17 -6 31 -14 31 -17z m585 -16 c-4 -20
-11 -36 -15 -36 -9 0 -43 50 -38 55 6 7 53 23 56 20 2 -2 0 -19 -3 -39z m-260
-216 c104 -225 223 -435 505 -890 371 -597 716 -1104 1052 -1546 5 -7 -30 -62
-95 -150 -294 -396 -600 -848 -889 -1309 -320 -512 -429 -701 -558 -967 l-76
-157 -53 114 c-229 492 -906 1561 -1468 2319 -65 88 -100 143 -95 150 336 442
681 949 1052 1546 282 454 408 677 511 902 29 64 54 116 55 115 1 -1 27 -58
59 -127z m-615 -269 c0 -17 -17 -21 -51 -14 l-34 7 30 7 c45 10 55 10 55 0z
m1175 -2 c14 0 11 -3 -10 -10 -34 -10 -55 -5 -55 12 0 7 9 9 23 5 12 -3 31 -6
42 -7z m-1380 -329 c20 0 19 -9 -3 -43 l-19 -27 -27 51 -28 51 30 -16 c17 -9
38 -16 47 -16z m1569 -20 l-27 -50 -19 27 c-22 35 -23 43 0 43 9 1 28 7 42 15
14 8 26 14 28 15 2 0 -9 -23 -24 -50z m-2562 -1396 c35 -9 64 -18 66 -19 5 -4
-71 -105 -78 -105 -4 0 -54 97 -68 132 -5 11 8 10 80 -8z m3586 8 c-14 -35
-64 -132 -68 -132 -8 0 -83 101 -78 105 5 5 111 32 131 34 10 0 17 -3 15 -7z
m-3518 -852 c0 -3 -26 -11 -57 -17 -32 -7 -68 -15 -80 -18 -19 -6 -18 0 19 70
l40 77 39 -54 c21 -29 39 -55 39 -58z m3489 34 c36 -69 38 -75 18 -70 -12 4
-47 12 -77 18 -30 7 -57 13 -59 14 -3 2 71 114 76 114 1 0 20 -34 42 -76z
m-2565 -1431 c13 -27 13 -28 -27 -45 -22 -10 -41 -17 -43 -16 -3 4 47 88 52
88 2 0 10 -12 18 -27z m1575 -25 c13 -21 21 -38 18 -38 -3 0 -23 8 -45 18 -39
18 -40 18 -25 46 16 31 19 29 52 -26z m-1380 -347 c-5 -1 -27 1 -47 5 l-37 8
40 5 c36 6 70 -9 44 -18z m1196 8 c-33 -13 -75 -11 -69 4 3 8 18 11 47 8 33
-3 38 -5 22 -12z m-911 -480 c20 -35 21 -34 -16 -43 -30 -7 -31 -5 -22 43 8
39 15 39 38 0z m596 22 c0 -5 3 -23 6 -40 7 -31 6 -32 -22 -25 -39 9 -38 8
-18 43 18 30 34 40 34 22z"/>
<path d="M27972 27392 c-75 -81 -330 -381 -537 -632 -120 -146 -255 -308 -301
-361 -131 -152 -133 -156 -133 -254 1 -59 6 -92 17 -113 21 -35 666 -811 849
-1019 74 -84 138 -153 143 -154 6 0 57 -1 115 -1 58 0 109 1 115 1 5 1 69 70
143 154 183 208 828 984 849 1019 11 21 16 54 17 113 0 98 -2 102 -133 254
-46 53 -181 215 -301 361 -207 251 -462 551 -537 632 l-34 36 -119 0 -119 0
-34 -36z m162 -952 l-8 -185 -9 165 c-5 93 -6 255 -1 370 l8 205 9 -185 c5
-103 6 -267 1 -370z m-204 458 c-4 -46 -8 -52 -33 -59 -16 -4 -35 -13 -43 -20
-8 -6 -14 -8 -14 -5 0 12 87 136 94 136 1 0 -1 -23 -4 -52z m440 -18 c42 -62
50 -81 26 -61 -8 7 -27 16 -43 20 -25 7 -29 13 -33 58 -3 28 -2 49 2 47 5 -3
26 -32 48 -64z m-236 -1380 l-8 -205 -9 185 c-5 103 -6 267 -1 370 l8 185 9
-165 c5 -93 6 -255 1 -370z m-203 -118 c3 -26 5 -48 4 -50 -1 -1 -25 31 -53
71 l-51 74 47 -24 c44 -22 47 -27 53 -71z m438 23 c-28 -42 -53 -74 -54 -73
-1 2 1 24 4 50 6 44 9 50 51 72 25 13 46 24 48 25 2 0 -20 -33 -49 -74z"/>
<path d="M20074 30001 c-29 -13 -34 -31 -19 -68 22 -52 80 -108 515 -498 785
-703 932 -832 974 -854 88 -44 190 -21 257 58 19 21 119 185 223 363 225 384
228 391 153 462 -31 31 -70 53 -126 75 -83 32 -1816 454 -1906 465 -27 3 -59
1 -71 -3z"/>
<path d="M36185 29559 c-159 -21 -542 -73 -850 -114 -308 -41 -588 -82 -622
-91 -74 -19 -136 -68 -154 -121 -26 -80 -9 -155 120 -527 67 -191 129 -359
138 -373 18 -28 62 -53 93 -53 41 0 143 41 218 89 126 78 1504 1079 1545 1121
41 44 49 83 18 100 -37 19 -215 8 -506 -31z"/>
<path d="M21025 27249 c-69 -10 -3169 -776 -3324 -820 -114 -33 -196 -67 -242
-100 -24 -17 -30 -27 -27 -53 6 -63 10 -65 1238 -380 970 -248 2303 -585 2345
-592 85 -13 169 33 220 120 26 46 51 125 65 212 13 75 70 1167 70 1335 0 117
-2 129 -27 179 -22 43 -38 59 -73 77 -53 27 -156 36 -245 22z"/>
<path d="M35126 27015 c-53 -19 -92 -59 -126 -130 -58 -120 -64 -176 -101
-1070 -21 -497 -21 -534 -6 -586 29 -97 73 -134 176 -149 31 -5 92 -4 136 2
101 12 3299 825 3432 873 124 44 177 80 181 122 6 63 10 62 -1013 318 -1458
364 -2569 635 -2605 635 -19 -1 -52 -7 -74 -15z"/>
<path d="M22016 25958 c-56 -42 -72 -125 -34 -173 45 -58 741 -376 1291 -590
81 -32 147 -60 147 -63 0 -16 -89 -294 -130 -407 -81 -221 -137 -351 -257
-594 -122 -248 -125 -260 -88 -318 33 -50 49 -52 674 -110 328 -30 601 -56
608 -58 18 -6 -121 -370 -254 -664 -41 -92 -78 -181 -83 -199 -11 -45 5 -96
39 -125 35 -29 32 -29 694 -54 251 -9 457 -21 457 -25 0 -12 -73 -202 -120
-313 -23 -55 -87 -189 -141 -298 -112 -224 -119 -254 -71 -307 25 -28 37 -33
144 -50 332 -54 687 -82 1041 -83 147 -1 267 -2 267 -4 0 -1 -9 -42 -21 -90
-70 -300 -131 -766 -107 -818 21 -46 106 -56 127 -16 5 9 19 66 31 126 54 276
133 590 199 796 45 139 41 181 -19 222 -22 15 -61 17 -365 17 -187 0 -405 5
-485 10 -151 11 -492 47 -522 56 -16 5 -13 15 22 84 124 247 310 720 310 789
0 38 -36 90 -73 105 -22 9 -195 20 -567 35 -294 12 -536 23 -538 25 -2 2 28
77 66 167 81 191 184 459 236 609 36 107 37 132 9 177 -29 45 -61 50 -658 109
-319 31 -583 60 -588 64 -4 3 16 53 44 111 115 233 234 537 318 807 94 304 98
343 43 394 -16 16 -92 51 -190 88 -359 135 -760 308 -1156 499 -207 100 -246
109 -300 69z"/>
<path d="M33930 25888 c-374 -182 -788 -361 -1152 -498 -269 -102 -266 -94
-147 -482 84 -270 203 -574 318 -807 28 -58 48 -108 44 -111 -5 -4 -269 -33
-588 -64 -597 -59 -629 -64 -658 -109 -28 -45 -27 -70 9 -177 52 -150 155
-418 236 -609 38 -90 68 -165 66 -167 -2 -2 -244 -13 -538 -25 -372 -15 -545
-26 -567 -35 -37 -15 -73 -67 -73 -105 0 -69 186 -542 310 -789 35 -69 38 -79
22 -84 -30 -9 -371 -45 -522 -56 -80 -5 -298 -10 -485 -10 -304 0 -343 -2
-365 -17 -60 -41 -64 -83 -19 -222 66 -206 145 -520 199 -796 12 -60 26 -117
31 -126 21 -40 106 -30 127 16 24 52 -37 518 -107 818 -12 48 -21 89 -21 90 0
2 120 3 268 4 353 1 708 29 1040 83 107 17 119 22 145 50 47 53 40 83 -72 307
-54 109 -118 243 -141 298 -47 111 -120 301 -120 313 0 4 206 16 458 25 661
25 658 25 693 54 34 29 50 80 39 125 -5 18 -42 107 -83 199 -133 294 -272 658
-254 664 7 2 280 28 608 58 625 58 641 60 674 110 37 58 34 70 -88 318 -120
243 -176 373 -257 594 -41 113 -130 391 -130 407 0 3 66 31 148 63 549 214
1245 532 1290 590 39 49 21 133 -36 174 -55 39 -96 29 -302 -71z"/>
<path d="M21412 23990 c-30 -10 -82 -35 -117 -54 -134 -74 -1572 -990 -1608
-1024 -44 -43 -47 -79 -7 -99 44 -22 223 -15 1016 42 887 63 970 70 1008 85
87 33 126 94 126 198 0 56 -19 135 -104 442 -96 346 -106 376 -135 402 -38 34
-99 37 -179 8z"/>
<path d="M35011 23723 c-59 -29 -96 -79 -184 -246 -183 -347 -277 -547 -277
-587 0 -73 75 -130 222 -170 115 -31 1833 -330 1897 -330 69 0 97 16 88 52
-16 61 -24 69 -1292 1067 -126 99 -252 192 -279 206 -59 29 -125 32 -175 8z"/>
<path d="M22485 22041 c-48 -25 -104 -77 -156 -146 -58 -78 -1756 -2908 -1806
-3010 -52 -108 -73 -195 -54 -219 18 -21 60 -20 118 2 65 25 714 408 2345
1384 806 482 830 498 844 575 17 89 -22 203 -108 322 -83 113 -923 1033 -978
1070 -66 45 -144 53 -205 22z"/>
<path d="M33525 21806 c-131 -42 -185 -84 -675 -531 -488 -444 -564 -517 -595
-570 -66 -112 -27 -218 120 -330 81 -61 2799 -1686 2980 -1781 142 -74 226
-101 261 -85 34 15 32 70 -4 146 -37 77 -472 810 -1232 2072 -433 719 -612
1008 -641 1035 -61 56 -131 70 -214 44z"/>
<path d="M27171 20605 c-52 -16 -85 -46 -114 -100 -18 -33 -21 -57 -20 -140 0
-97 11 -144 412 -1740 227 -902 428 -1688 448 -1747 53 -160 102 -221 152
-191 50 29 102 222 652 2427 289 1157 292 1170 281 1224 -15 71 -47 111 -119
149 -121 64 -146 67 -858 103 -677 33 -770 35 -834 15z"/>
<path d="M24963 19743 c-39 -37 -78 -113 -103 -205 -26 -96 -376 -1776 -385
-1848 -12 -97 17 -130 83 -96 55 28 113 96 1080 1250 106 126 202 249 213 273
44 91 21 184 -62 254 -24 21 -190 117 -369 215 -271 147 -333 178 -375 182
-45 4 -54 1 -82 -25z"/>
<path d="M31210 19569 c-19 -4 -192 -57 -383 -117 -371 -117 -391 -126 -403
-190 -9 -45 18 -140 61 -217 60 -108 1033 -1539 1083 -1593 59 -65 90 -68 109
-12 20 59 15 135 -47 740 -101 990 -128 1234 -140 1265 -42 109 -148 157 -280
124z"/>
<path d="M13900 13610 l0 -2010 355 0 355 0 2 1352 3 1352 601 -1295 602
-1294 318 0 318 0 595 1289 596 1289 3 -1347 2 -1346 360 0 360 0 0 2010 0
2010 -436 -2 -437 -3 -676 -1477 c-372 -813 -679 -1478 -682 -1478 -3 0 -313
666 -690 1480 l-684 1480 -432 0 -433 0 0 -2010z"/>
<path d="M28350 13606 l0 -1996 360 0 360 0 0 1005 0 1005 229 0 228 0 674
-1005 673 -1005 398 0 399 0 -675 1010 c-372 555 -676 1013 -676 1018 0 6 26
13 58 17 76 9 300 67 385 99 173 65 371 184 475 285 178 174 258 345 269 571
5 97 2 129 -16 200 -100 399 -482 661 -1108 762 -134 21 -164 22 -1085 25
l-948 4 0 -1995z m1762 1413 c304 -33 520 -143 600 -307 28 -57 33 -77 33
-142 0 -208 -173 -346 -509 -407 -74 -13 -189 -17 -628 -20 l-538 -5 0 446 0
446 470 0 c275 0 512 -5 572 -11z"/>
<path d="M35750 13600 l0 -2000 360 0 359 0 3 838 4 837 22 75 c87 286 293
490 567 561 101 26 261 28 360 5 202 -48 368 -193 454 -394 50 -119 51 -141
51 -1063 l0 -859 360 0 361 0 -4 943 c-3 909 -4 945 -24 1037 -26 120 -64 233
-104 313 -164 324 -443 529 -805 592 -130 23 -373 23 -509 1 -258 -43 -519
-177 -683 -350 l-52 -55 0 760 0 759 -360 0 -360 0 0 -2000z"/>
<path d="M20400 14500 c-471 -33 -904 -203 -1126 -443 -35 -38 -64 -76 -64
-83 0 -16 310 -352 326 -353 6 -1 21 10 34 24 57 61 248 168 390 219 275 99
630 114 885 36 106 -33 243 -104 309 -160 145 -125 205 -242 206 -401 l0 -67
-72 73 c-209 208 -491 318 -885 345 -549 36 -1068 -122 -1372 -420 -192 -187
-277 -386 -274 -640 4 -402 275 -731 753 -915 371 -144 924 -164 1294 -48 175
55 370 168 489 283 l67 66 0 -203 0 -203 355 0 356 0 -4 998 c-3 972 -3 999
-23 1067 -31 106 -62 172 -120 261 -196 299 -561 491 -1044 548 -169 20 -341
26 -480 16z m353 -1396 c322 -44 535 -167 592 -342 25 -77 17 -192 -19 -265
-52 -107 -186 -205 -358 -261 -152 -49 -253 -61 -523 -61 -283 0 -391 15 -572
80 -175 62 -306 163 -356 272 -33 73 -31 180 6 255 33 67 112 143 200 192 234
130 650 182 1030 130z"/>
<path d="M24160 14503 c-288 -31 -553 -151 -790 -357 l-75 -66 -3 205 -2 205
-355 0 -355 0 0 -1445 0 -1445 355 0 354 0 3 793 c4 872 1 832 68 974 115 247
378 460 660 534 86 22 232 30 345 19 l50 -5 16 225 c9 124 20 258 23 298 l6
72 -133 -2 c-72 0 -148 -3 -167 -5z"/>
<path d="M26170 14500 c-359 -25 -698 -129 -945 -290 -86 -57 -245 -209 -245
-235 0 -15 302 -345 323 -354 5 -2 25 12 45 31 114 108 359 221 585 270 139
30 448 33 577 4 184 -40 337 -116 451 -223 114 -109 169 -228 169 -370 l0 -62
-74 74 c-70 70 -191 157 -281 203 -23 11 -87 36 -143 56 -368 128 -898 120
-1303 -20 -409 -140 -696 -409 -780 -729 -28 -105 -31 -299 -6 -399 69 -276
260 -505 547 -655 248 -130 503 -194 830 -208 155 -6 363 8 490 33 252 50 478
162 651 322 l69 64 0 -201 0 -201 355 0 356 0 -3 993 -3 992 -23 80 c-94 333
-362 588 -756 720 -249 84 -599 125 -886 105z m255 -1385 c324 -21 584 -141
673 -310 24 -45 27 -61 27 -150 -1 -88 -4 -107 -28 -157 -53 -108 -187 -205
-362 -262 -163 -52 -238 -61 -520 -61 -242 1 -268 3 -380 27 -361 78 -556 226
-572 432 -20 258 313 456 817 486 122 7 162 7 345 -5z"/>
<path d="M33580 14500 c-455 -31 -882 -191 -1106 -414 -33 -34 -69 -73 -78
-89 l-18 -27 65 -73 c36 -39 110 -119 165 -177 l98 -104 50 41 c127 106 318
200 497 244 433 109 874 31 1111 -196 113 -108 166 -222 166 -359 l0 -71 -88
85 c-235 226 -556 332 -1002 333 -348 0 -615 -54 -878 -179 -145 -68 -233
-127 -337 -226 -101 -96 -172 -189 -219 -289 -53 -112 -68 -178 -73 -330 -5
-145 6 -218 57 -351 54 -145 229 -346 393 -452 375 -245 945 -337 1449 -235
240 48 474 166 630 317 l68 65 0 -201 0 -202 360 0 360 0 0 893 c0 502 -4 941
-10 1003 -18 205 -76 352 -196 502 -145 181 -342 309 -609 395 -243 78 -576
116 -855 97z m310 -1391 c301 -33 529 -145 612 -300 20 -38 23 -58 23 -154 0
-101 -2 -114 -28 -163 -77 -147 -245 -241 -532 -299 -129 -26 -559 -26 -690 0
-363 72 -563 206 -606 407 -22 105 31 228 134 311 214 172 630 248 1087 198z"/>
<path d="M40680 14499 c-503 -33 -960 -225 -1172 -492 l-30 -37 143 -153 c78
-83 152 -163 165 -176 l23 -24 43 34 c139 113 321 201 533 259 147 39 412 51
575 25 133 -22 214 -48 332 -107 83 -42 117 -66 184 -132 48 -48 92 -103 109
-135 31 -63 55 -164 55 -240 l0 -53 -67 69 c-209 213 -493 326 -890 352 -363
25 -746 -42 -1026 -178 -248 -121 -440 -297 -539 -496 -125 -250 -114 -561 30
-802 103 -174 270 -321 487 -429 277 -137 524 -190 895 -188 327 1 527 42 746
152 123 62 232 138 307 214 l57 59 0 -206 0 -205 355 0 356 0 -3 988 -4 987
-23 85 c-45 162 -112 279 -230 404 -198 208 -487 342 -858 400 -97 15 -361 37
-413 34 -14 0 -77 -4 -140 -9z m311 -1390 c246 -25 446 -105 553 -219 71 -76
90 -126 91 -235 0 -82 -3 -96 -33 -157 -73 -148 -245 -248 -528 -305 -113 -23
-545 -26 -664 -5 -248 44 -425 119 -535 228 -94 93 -126 212 -89 330 15 49 30
71 88 129 77 77 159 125 286 168 220 75 518 99 831 66z"/>
<path d="M26725 10520 c-151 -30 -301 -143 -365 -274 -100 -203 -69 -449 76
-606 108 -116 226 -169 395 -177 153 -8 282 23 396 95 l43 27 0 213 0 212 -90
0 -90 0 -2 -166 -3 -166 -50 -20 c-79 -32 -205 -35 -285 -8 -101 34 -174 97
-218 190 -24 48 -27 67 -27 155 0 89 3 107 29 162 57 123 168 194 317 201 122
6 192 -18 306 -103 9 -7 29 6 73 50 l60 59 -22 24 c-43 45 -134 97 -212 119
-61 18 -101 23 -185 22 -58 -1 -124 -5 -146 -9z"/>
<path d="M22882 10503 c-16 -30 -462 -1023 -462 -1028 0 -3 44 -5 99 -5 l98 0
48 113 c27 61 53 118 58 125 8 9 68 12 265 10 l256 -3 52 -120 51 -120 102 -3
c95 -2 102 -1 97 15 -3 10 -109 245 -234 523 l-228 505 -97 3 c-84 2 -97 0
-105 -15z m201 -410 l95 -223 -194 0 -194 0 13 33 c72 169 180 417 182 415 1
-2 45 -103 98 -225z"/>
<path d="M23760 9996 l0 -527 98 3 97 3 3 153 3 153 136 -3 136 -3 106 -152
106 -152 103 -1 c56 0 102 3 102 6 0 3 -52 81 -117 172 -64 91 -111 168 -106
169 35 12 123 86 150 127 42 62 56 114 57 206 0 131 -49 228 -148 292 -104 67
-127 71 -443 76 l-283 4 0 -526z m535 344 c98 -29 152 -109 142 -212 -7 -77
-40 -128 -104 -159 -43 -22 -64 -24 -210 -27 l-163 -4 0 212 0 213 148 -6 c81
-3 165 -11 187 -17z"/>
<path d="M24780 10440 l0 -80 173 -2 172 -3 3 -442 2 -443 95 0 95 0 2 443 3
442 173 3 172 2 0 80 0 80 -445 0 -445 0 0 -80z"/>
<path d="M27917 10493 c-22 -43 -457 -1012 -457 -1018 0 -3 45 -5 99 -5 l99 0
53 125 52 125 260 -2 260 -3 52 -120 52 -120 102 -3 c55 -1 101 1 101 5 -1 4
-106 240 -234 523 l-233 515 -96 3 -96 3 -14 -28z m201 -621 c-55 -1 -141 -1
-193 0 l-93 3 87 205 c48 113 91 214 95 225 5 15 30 -33 105 -205 l97 -225
-98 -3z"/>
<path d="M28800 9995 l0 -525 370 0 370 0 0 85 0 85 -275 0 -275 0 0 440 0
440 -95 0 -95 0 0 -525z"/>
<path d="M29770 9995 l0 -525 370 0 370 0 0 85 0 85 -270 0 -270 0 0 440 0
440 -100 0 -100 0 0 -525z"/>
<path d="M30740 9995 l0 -525 393 2 392 3 0 80 0 80 -292 3 -293 2 0 140 0
140 250 0 250 0 0 80 0 80 -250 0 -250 0 0 140 0 140 285 0 285 0 0 80 0 80
-385 0 -385 0 0 -525z"/>
<path d="M31820 9995 l0 -525 95 0 95 0 0 155 0 155 139 0 138 0 108 -155 109
-155 104 0 104 0 -18 28 c-9 15 -60 87 -112 161 -52 74 -96 140 -99 147 -3 7
12 21 37 34 55 28 111 86 141 146 21 43 24 63 24 159 0 134 -21 189 -96 260
-103 96 -187 115 -521 115 l-248 0 0 -525z m473 355 c124 -18 178 -63 199
-162 19 -95 -19 -175 -106 -221 -37 -19 -59 -22 -208 -25 l-168 -4 0 204 c0
113 3 208 7 211 10 10 199 8 276 -3z"/>
<path d="M32820 10516 c0 -2 92 -156 205 -342 l205 -339 0 -182 0 -183 95 0
95 0 0 183 0 183 205 339 205 340 -87 3 c-47 2 -91 1 -97 -1 -6 -3 -78 -115
-160 -251 -82 -135 -152 -246 -155 -246 -3 0 -74 113 -156 250 l-150 250 -102
0 c-57 0 -103 -2 -103 -4z"/>
<path d="M20385 10049 c-676 -26 -1257 -49 -1290 -51 -33 -2 518 -25 1225 -51
707 -27 1347 -51 1423 -54 l137 -6 0 106 0 107 -132 -1 c-73 -1 -686 -23
-1363 -50z"/>
<path d="M34370 9993 l0 -106 138 6 c75 3 715 27 1422 54 707 26 1272 49 1255
51 -56 4 -2673 102 -2744 102 l-71 0 0 -107z"/>
</g>
</svg>
